<?xml version="1.0" encoding="utf-8"?>
<!-- Generator: Adobe Illustrator 26.4.1, SVG Export Plug-In . SVG Version: 6.00 Build 0)  -->
<svg version="1.1" id="图层_1" xmlns="http://www.w3.org/2000/svg" xmlns:xlink="http://www.w3.org/1999/xlink" x="0px" y="0px"
	 viewBox="0 0 127.6 129.2" style="enable-background:new 0 0 127.6 129.2;" xml:space="preserve">
<style type="text/css">
	.st0{clip-path:url(#SVGID_00000041988795086510409240000004640229685133359245_);}
	.st1{fill:#F27D5C;}
	.st2{fill:#2E2E38;}
</style>
<g>
	<defs>
		<rect id="SVGID_1_" x="2.4" y="2.9" width="122.7" height="123.4"/>
	</defs>
	<clipPath id="SVGID_00000121959873437940539080000001065052391185729197_">
		<use xlink:href="#SVGID_1_"  style="overflow:visible;"/>
	</clipPath>
	<g style="clip-path:url(#SVGID_00000121959873437940539080000001065052391185729197_);">
		<path class="st1" d="M117.4,34.8c-0.5-0.9-0.9-1.8-1.5-2.6c-3-5.8-6.2-9.2-11.2-13.2c-4.6-3.7-10.6-9.4-16-11.8
			c-8-3.5-16.7-5-25.1-4c-4.6,0.5-10.2,0.8-14.8,2c-4.5,1.1-9.3,3.4-13.4,5.5c-5.2,2.5-9.7,6.1-13.7,10.1
			c-8,7.9-14.4,18.5-16.9,29.6c-3.6,15.8-1.4,31.2,6.4,45.5c7.5,13.7,20.8,22.5,35.1,27.4c5.3,1.9,12.2,2.7,17.1,2.8
			c0.7,0,1.4,0.1,2.1,0c4.6-0.1,10.8-0.9,15.1-2.1c12.9-3.5,23.3-11.3,31.3-21.8c8.3-10.8,12.8-23.3,13-37.1
			c0.1-5.5-0.7-11.8-2.1-17.1C121.7,43.9,119.5,38.8,117.4,34.8z"/>
	</g>
</g>
<path class="st2" d="M60.3,79c2.3,2.9,2.7,6.9,1.5,10.4c-1.4,4.4,5.4,6.1,6.8,1.9c2-6.1,0.6-12.4-3.3-17.3
	C62.5,70.5,57.6,75.4,60.3,79z"/>
<path class="st2" d="M71.4,84.8c2.3-1.5,5-2.6,7.9-2.9c1.9-0.2,3.5-1.5,3.5-3.5c0-1.8-1.6-3.8-3.5-3.5c-4.1,0.3-8,1.6-11.4,3.9
	C64,81.2,67.5,87.3,71.4,84.8z"/>
<path class="st2" d="M47.8,56.7c4.2,1.3,8.4,0.8,12.4-0.9c1.8-0.8,2.1-3.3,1.3-4.8c-1.1-1.8-3.1-2-4.8-1.3c-2.2,1.1-4.7,0.9-7,0.2
	C45.4,48.6,43.5,55.4,47.8,56.7z"/>
<path class="st2" d="M79.2,54c3.6,0.5,7.2,0,10.3-2.1c1.5-1.1,2.2-3.1,1.3-4.8c-0.9-1.5-3.3-2.4-4.8-1.3c-1.4,0.9-3.2,1.7-4.9,1.4
	c-1.9-0.2-3.8,0.5-4.3,2.5C76.2,51.3,77.3,53.8,79.2,54z"/>
</svg>
