<?xml version="1.0" encoding="utf-8"?>
<!-- Generator: Adobe Illustrator 26.4.1, SVG Export Plug-In . SVG Version: 6.00 Build 0)  -->
<svg version="1.1" id="图层_1" xmlns="http://www.w3.org/2000/svg" xmlns:xlink="http://www.w3.org/1999/xlink" x="0px" y="0px"
	 viewBox="0 0 127.6 127.6" style="enable-background:new 0 0 127.6 127.6;" xml:space="preserve">
<style type="text/css">
	.st0{clip-path:url(#SVGID_00000011717771270554480630000009629848995060231338_);}
	.st1{fill:#AB9685;}
</style>
<g>
	<defs>
		<rect id="SVGID_1_" x="3.8" y="7.5" width="120" height="112.6"/>
	</defs>
	<clipPath id="SVGID_00000003076431483769885660000016277021805836977543_">
		<use xlink:href="#SVGID_1_"  style="overflow:visible;"/>
	</clipPath>
	<g style="clip-path:url(#SVGID_00000003076431483769885660000016277021805836977543_);">
		<path class="st1" d="M61.9,7.5c-4.7,0-35,0.9-49.8,25.4C-1.1,54.7,5.7,82.7,20.2,99c21.5,24.1,65.7,29.4,88.8,3.6
			c17.7-19.8,17.5-51.6,1.8-72.5C93.9,7.7,66.2,7.5,61.9,7.5z"/>
	</g>
</g>
<path d="M107.8,37.2c-0.1-1.4-1.2-2.7-2.7-2.7c-1.4,0.1-2.8,1.2-2.7,2.7c0.2,3.2,0.4,6.4,0.7,9.7c0.1,1.4,1.2,2.7,2.7,2.7
	c1.4-0.1,2.8-1.2,2.7-2.7L107.8,37.2z"/>
<path d="M95.2,32.9c-1.4,0.1-2.7,1.2-2.7,2.7c0.2,3.7,0.4,7.4,0.7,11.2c0.1,1.4,1.2,2.7,2.7,2.7c1.4-0.1,2.7-1.2,2.7-2.7l-0.7-11.2
	C97.7,34.2,96.7,32.8,95.2,32.9z"/>
<path d="M84.6,31.1c-0.4,0-0.7,0.1-1,0.2c-0.3,0.1-0.6,0.3-0.9,0.6c-0.2,0.2-0.4,0.5-0.6,0.9c-0.1,0.3-0.2,0.7-0.2,1v13.6
	c0,0.3,0.1,0.7,0.2,1s0.3,0.6,0.6,0.8c0.2,0.2,0.5,0.4,0.9,0.6c0.3,0.1,0.6,0.2,1,0.2s0.7-0.1,1-0.2c0.3-0.1,0.6-0.3,0.8-0.6
	c0.2-0.2,0.4-0.5,0.6-0.8c0.1-0.3,0.2-0.6,0.2-1V33.8c0-0.3-0.1-0.7-0.2-1c-0.1-0.3-0.3-0.6-0.6-0.9c-0.2-0.2-0.5-0.4-0.9-0.6
	C85.3,31.2,84.9,31.1,84.6,31.1z"/>
<path d="M53.4,81.2c0.2-0.3,0.3-0.6,0.3-1c0-0.3,0-0.7-0.1-1c-0.1-0.3-0.2-0.7-0.5-0.9c-0.2-0.3-0.5-0.5-0.8-0.7
	c-0.3-0.2-0.7-0.3-1.1-0.3c0.1-0.2,0.1-0.4,0.2-0.5c0-0.1,0.1-0.2,0.1-0.2c0.1-0.3,0.3-0.6,0.5-0.9c0.5-0.6,0.9-1.3,1.3-2
	c0.8-1.8,0.1-3.7-0.4-5.5c-0.4-1.7-0.8-3.4-1.2-5.1c-0.1-0.3-0.2-0.6-0.5-0.9s-0.5-0.5-0.8-0.7c-0.3-0.2-0.6-0.3-1-0.3
	c-0.3,0-0.7,0-1,0.1c-0.3,0.1-0.6,0.3-0.9,0.5s-0.5,0.5-0.7,0.8c-0.2,0.3-0.3,0.6-0.3,1c0,0.3,0,0.7,0.1,1l1.6,6.5
	c0.1,0.2,0.1,0.4,0.2,0.6c0,0.1,0,0.1,0,0.2c-0.1,0.1-0.2,0.3-0.3,0.4c-0.7,0.9-1.2,1.8-1.6,2.9c-0.7,2-1.1,4.6,0.2,6.3
	C48.5,83.5,51.8,83.6,53.4,81.2z M48.4,71.8C48.4,71.8,48.4,71.8,48.4,71.8C48.5,72.1,48.5,72,48.4,71.8z M51.2,78.4
	C51.3,78.6,51.2,78.6,51.2,78.4z"/>
<path d="M36.1,68.3c-2.7,0.6-5.2,1.7-7.5,3.4c-0.6,0.4-1,0.9-1.2,1.6c-0.2,0.7-0.1,1.4,0.3,2c0.4,0.6,0.9,1,1.6,1.2
	c0.7,0.2,1.4,0.1,2-0.3c1-0.7,2.1-1.4,3.3-1.9c1-0.4,1.9-0.7,3-0.9c0.3-0.1,0.6-0.3,0.9-0.5c0.3-0.2,0.5-0.5,0.7-0.8
	c0.2-0.3,0.3-0.6,0.3-1c0-0.3,0-0.7-0.1-1c-0.1-0.3-0.3-0.6-0.5-0.9c-0.2-0.3-0.5-0.5-0.8-0.7c-0.3-0.2-0.6-0.3-1-0.3
	C36.8,68.2,36.5,68.2,36.1,68.3z"/>
<path d="M74.1,70.1c-3-2.1-6.4-3.1-10.1-3.1c-0.3,0-0.7,0.1-1,0.2c-0.3,0.1-0.6,0.3-0.8,0.6s-0.4,0.5-0.5,0.8
	c-0.1,0.3-0.2,0.7-0.2,1s0.1,0.7,0.2,1c0.1,0.3,0.3,0.6,0.5,0.8s0.5,0.4,0.8,0.6c0.3,0.1,0.6,0.2,1,0.2c0.5,0,1.1,0,1.6,0.1
	c1.1,0.2,2.2,0.5,3.3,0.9c0.9,0.4,1.7,0.9,2.5,1.4c1.1,0.8,3,0.3,3.6-1c0.2-0.3,0.3-0.6,0.3-1c0-0.3,0-0.7-0.1-1
	c-0.1-0.3-0.2-0.6-0.4-0.9C74.7,70.5,74.4,70.3,74.1,70.1z"/>
<path d="M59.3,84.4c-0.5-0.3-1.1-0.4-1.6-0.3c-0.3,0-0.6,0-0.9,0.1c-0.7,0.3-1.4,0.5-2.2,0.7c-0.8,0.2-1.6,0.5-2.4,0.9
	c-0.8,0.5-1.3,1.1-1.6,2c-0.2,0.9-0.2,1.8,0.2,2.6c0.4,0.9,0.8,1.8,1.2,2.7c0.4,0.8,0.8,1.5,1.4,2.2c0.9,1,2,1.5,3.3,1.6
	c2.3,0.2,4.5-1.8,5-4c0.5-2.4-0.5-4.7-1.3-6.9C60.4,85.3,60,84.8,59.3,84.4z"/>
</svg>
