<?xml version="1.0" encoding="utf-8"?>
<!-- Generator: Adobe Illustrator 26.4.1, SVG Export Plug-In . SVG Version: 6.00 Build 0)  -->
<svg version="1.1" id="图层_1" xmlns="http://www.w3.org/2000/svg" xmlns:xlink="http://www.w3.org/1999/xlink" x="0px" y="0px"
	 viewBox="0 0 127.6 127.6" style="enable-background:new 0 0 127.6 127.6;" xml:space="preserve">
<style type="text/css">
	.st0{clip-path:url(#SVGID_00000024713921568495772560000004325700338384458922_);}
	.st1{fill:#F6AF67;}
	.st2{fill:#2E2E38;}
</style>
<g>
	<defs>
		<rect id="SVGID_1_" x="7.3" y="6.8" width="113" height="114"/>
	</defs>
	<clipPath id="SVGID_00000044156559033157064100000009777499390431786904_">
		<use xlink:href="#SVGID_1_"  style="overflow:visible;"/>
	</clipPath>
	<g style="clip-path:url(#SVGID_00000044156559033157064100000009777499390431786904_);">
		<path class="st1" d="M113.1,36.7c-0.4-0.9-0.9-1.6-1.4-2.4c-2.8-5.3-6.8-9.5-11.6-12.8c-4-3.7-8.6-6.3-13.9-7.7
			c-6.8-4.2-14.8-7-22.5-6.2C59.4,8.1,54.3,8.4,50,9.5c-4.1,1-8.5,3.1-12.3,5.1c-4.7,2.3-8.9,5.6-12.6,9.3
			c-7.3,7.3-13.3,17-15.5,27.2c-3.3,14.5-1.3,28.7,5.9,41.8c6.9,12.6,19.1,20.7,32.2,25.2c4.8,1.7,11.2,2.5,15.7,2.6
			c0.6,0,1.3,0.1,1.9,0c4.2-0.1,9.9-0.9,13.9-1.9c11.9-3.2,21.5-10.4,28.8-20c7.7-10,11.8-21.4,12-34.1c0.1-5.1-0.6-10.8-1.9-15.7
			C117.1,44.9,115.1,40.3,113.1,36.7z"/>
	</g>
</g>
<path class="st2" d="M31.4,64.4c0.1,0.9,0.2,1.8,0.2,2.7c0.1,0.9,0.3,1.6,1,2.3c0.5,0.5,1.5,1,2.3,1c1.6-0.1,3.5-1.4,3.2-3.2
	c-0.1-0.9-0.2-1.8-0.2-2.7c-0.1-0.9-0.3-1.6-1-2.3c-0.5-0.5-1.5-1-2.3-1C33,61.2,31.2,62.5,31.4,64.4z"/>
<path class="st2" d="M39.6,61.6c-0.5,2.1-0.5,4,0,6.1c0.4,1.6,2.4,2.8,4,2.3c1.7-0.5,2.7-2.3,2.3-4c0,0-0.2-1.1-0.1-0.3
	c0-0.3,0-0.7,0-1c0-0.3,0-0.7,0-1c-0.1,0.5,0.1-0.2,0.1-0.3c0.4-1.6-0.5-3.6-2.3-4C41.9,59,40,59.8,39.6,61.6z"/>
<path class="st2" d="M88.6,61.1c0.2,1.4,0.5,2.7,0.8,4.1c0.3,1.6,2.4,2.8,4,2.3c1.7-0.5,2.6-2.2,2.3-4c-0.2-1.4-0.5-2.7-0.8-4.1
	c-0.3-1.6-2.4-2.8-4-2.3C89.1,57.8,88.3,59.4,88.6,61.1z"/>
<path class="st2" d="M99.4,58.9c-0.4,1.8-0.4,3.8,0.3,5.5c0.3,0.9,0.6,1.5,1.5,1.9c0.6,0.4,1.7,0.5,2.5,0.3c1.5-0.4,2.9-2.3,2.3-4
	c-0.1-0.2-0.2-0.4-0.2-0.8c0-0.2-0.1-0.3-0.1-0.5c0,0.4,0,0.4,0,0.2c0-0.2,0-0.5,0-0.8s0-0.2,0,0.2c0-0.2,0.1-0.3,0.1-0.5
	c0.4-1.6-0.5-3.6-2.3-4C101.8,56.3,99.8,57.1,99.4,58.9z"/>
<path class="st2" d="M59.7,76.5c3,6,11.3,6,14.7,0.3c2.2-3.6-3.5-6.8-5.6-3.2c-1,1.6-2.7,1.3-3.5-0.3C63.4,69.5,57.8,72.8,59.7,76.5
	z"/>
<path class="st2" d="M46.2,57.2c4,1.2,8.3,0.7,11.9-1.5c3.6-2.2,0.3-7.8-3.2-5.6c-2.2,1.3-4.4,1.6-6.8,0.9
	C43.9,49.8,42.3,56,46.2,57.2z"/>
<path class="st2" d="M74.9,55.1c3.7,0.9,7.5,0.2,10.8-1.8c3.5-2.3,0.2-7.9-3.2-5.6c-1.7,1.2-3.7,1.6-5.7,1.2
	C72.7,47.9,71,54.1,74.9,55.1z"/>
</svg>
