<?xml version="1.0" encoding="utf-8"?>
<!-- Generator: Adobe Illustrator 26.4.1, SVG Export Plug-In . SVG Version: 6.00 Build 0)  -->
<svg version="1.1" id="图层_1" xmlns="http://www.w3.org/2000/svg" xmlns:xlink="http://www.w3.org/1999/xlink" x="0px" y="0px"
	 viewBox="0 0 127.6 127.6" style="enable-background:new 0 0 127.6 127.6;" xml:space="preserve">
<style type="text/css">
	.st0{clip-path:url(#SVGID_00000117642171159743000440000009997173060731645625_);}
	.st1{fill:#81B673;}
	.st2{fill:#211C1C;}
</style>
<g>
	<defs>
		<rect id="SVGID_1_" x="1.6" y="2.7" width="124.3" height="122.1"/>
	</defs>
	<clipPath id="SVGID_00000170252243727760939300000015720091646144741823_">
		<use xlink:href="#SVGID_1_"  style="overflow:visible;"/>
	</clipPath>
	<g style="clip-path:url(#SVGID_00000170252243727760939300000015720091646144741823_);">
		<path class="st1" d="M124.9,56.2c-1.3-9.9-5.9-19.8-12.1-28.4c-2.5-3.5-7.6-7.1-11.8-10.7c-4.3-3.7-7.8-7.2-12.7-9.3
			C83,5.6,77.7,4.1,72.1,3.3C67.5,2.7,62.7,4.1,58,4.5c-10.7,1-21.1,3.3-30.4,10.1c-4.5,3.2-8.4,7-11.9,11.3
			c-4.2,5.2-6.2,11.6-8.4,17.8c-3.9,10.7-6.1,21.7-3.8,33c1.7,8.4,5.7,19.7,11.8,25.6c6.3,6,10.2,11,17.3,15.2s15,5.1,23,6.1
			c15.2,2.1,29.3-1.6,42.7-11.4c5.2-3.8,11.4-6.3,15-11.3c4.4-5.9,6.1-12,8-19C123.8,73.8,126,64.7,124.9,56.2z"/>
	</g>
</g>
<path class="st2" d="M69.7,79.7c-1.8-2.1-4.5-3.4-7.2-3.2c-2.7,0.3-5.2,2.4-5.6,5.1c-0.1,0.7,0,1.3,0.3,1.9c0.7,1.5,2.7,2,4.3,1.8
	c1.7-0.2,3-1.3,4.5-0.6c0.8,0.3,1.7,0.5,2.5,0.6c2.1,0.3,2.5-2.4,2.1-3.9C70.5,80.7,70.2,80.1,69.7,79.7z"/>
<path class="st2" d="M43.9,53.5c-1.1-0.4-2.2-0.6-3.4-0.6c-1.2,0-2.3,0.3-3.4,0.7c-1.1,0.5-2,1.1-2.8,2c-0.8,0.9-1.3,1.9-1.7,3
	c-0.2,0.5-0.2,1,0,1.5c0.6,1.4,3.1-0.1,3.9-0.6c1-0.7,2.1-1.1,3.3-1.4c0,0.3,0.1,0.6,0.2,0.8c0.1,0.3,0.3,0.5,0.4,0.8
	c0.2,0.2,0.4,0.5,0.6,0.6c0.2,0.2,0.5,0.4,0.7,0.5c0.3,0.1,0.5,0.2,0.8,0.3c0.3,0.1,0.6,0.1,0.9,0.1c0.3,0,0.6,0,0.9-0.1
	c0.3-0.1,0.6-0.2,0.8-0.3c0.3-0.1,0.5-0.3,0.7-0.5c0.2-0.2,0.4-0.4,0.6-0.7c0.2-0.2,0.3-0.5,0.4-0.8c0.1-0.3,0.2-0.6,0.2-0.8
	s0-0.6,0-0.9c0-0.3-0.1-0.6-0.2-0.9c-0.1-0.3-0.2-0.5-0.4-0.8c-0.2-0.2-0.3-0.5-0.6-0.7C45.4,54.3,44.7,53.8,43.9,53.5z"/>
<path class="st2" d="M94,55c-0.6-0.7-1.3-1.1-2.2-1.4c-1.1-0.4-2.2-0.6-3.4-0.6c-1.2,0-2.3,0.3-3.4,0.7c-1.1,0.5-2,1.2-2.8,2
	c-0.8,0.9-1.3,1.9-1.7,3c-0.2,0.5-0.2,1,0,1.5c0.6,1.4,3.1-0.1,3.9-0.6c1-0.7,2.1-1.1,3.3-1.4c0,0.3,0.1,0.6,0.2,0.8
	c0.1,0.3,0.3,0.5,0.4,0.8c0.2,0.2,0.4,0.5,0.6,0.6c0.2,0.2,0.5,0.4,0.7,0.5c0.3,0.1,0.5,0.2,0.8,0.3s0.6,0.1,0.9,0.1
	c0.3,0,0.6,0,0.9-0.1c0.3-0.1,0.6-0.2,0.8-0.3c0.3-0.1,0.5-0.3,0.7-0.5c0.2-0.2,0.4-0.4,0.6-0.7c0.2-0.2,0.3-0.5,0.4-0.8
	c0.1-0.3,0.2-0.6,0.2-0.8c0-0.3,0-0.6,0-0.9c0-0.3-0.1-0.6-0.2-0.9c-0.1-0.3-0.2-0.5-0.4-0.8C94.4,55.4,94.2,55.2,94,55L94,55z"/>
</svg>
