<?xml version="1.0" encoding="utf-8"?>
<!-- Generator: Adobe Illustrator 26.4.1, SVG Export Plug-In . SVG Version: 6.00 Build 0)  -->
<svg version="1.1" id="图层_1" xmlns="http://www.w3.org/2000/svg" xmlns:xlink="http://www.w3.org/1999/xlink" x="0px" y="0px"
	 viewBox="0 0 127.6 127.6" style="enable-background:new 0 0 127.6 127.6;" xml:space="preserve">
<style type="text/css">
	.st0{clip-path:url(#SVGID_00000077313613713036017030000010289244672537906582_);}
	.st1{fill:#87BEB8;}
	.st2{fill:#2E2E38;}
</style>
<g>
	<defs>
		<rect id="SVGID_1_" x="2.1" y="1.3" width="123.3" height="125"/>
	</defs>
	<clipPath id="SVGID_00000116919653281262236800000004805361284498042540_">
		<use xlink:href="#SVGID_1_"  style="overflow:visible;"/>
	</clipPath>
	<g style="clip-path:url(#SVGID_00000116919653281262236800000004805361284498042540_);">
		<path class="st1" d="M117.7,33.9c-0.5-0.9-0.9-1.8-1.5-2.6c-3.1-5.8-7.5-10.4-12.8-14c-4.4-4-9.5-6.9-15.3-8.4
			c-7.5-4.6-16.2-7.7-24.7-6.7c-4.6,0.5-10.3,0.8-14.9,2C44,5.3,39.1,7.7,35,9.8C29.8,12.3,25.2,16,21.1,20
			c-8.1,7.9-14.6,18.6-17,29.7C0.4,65.5,2.7,81,10.6,95.4c7.6,13.7,20.9,22.6,35.4,27.6c5.3,1.9,12.3,2.7,17.3,2.8
			c0.7,0,1.4,0.1,2.1,0c4.6-0.1,10.9-0.9,15.3-2.1c13-3.6,23.5-11.4,31.6-21.9c8.4-10.9,12.9-23.4,13.1-37.3
			c0.1-5.6-0.7-11.8-2.1-17.2C122.1,42.9,119.8,37.8,117.7,33.9z"/>
	</g>
</g>
<path class="st2" d="M54.4,55.9c0,0.6-0.1,1.1-0.3,1.7c-0.2,0.5-0.5,1-0.9,1.4c-0.4,0.4-0.9,0.7-1.4,1c-0.5,0.2-1.1,0.3-1.7,0.3
	c-0.6,0-1.1-0.1-1.7-0.3c-0.5-0.2-1-0.5-1.4-1c-0.4-0.4-0.7-0.9-0.9-1.4c-0.2-0.5-0.3-1.1-0.3-1.7c0-0.6,0.1-1.1,0.3-1.7
	c0.2-0.5,0.5-1,0.9-1.4c0.4-0.4,0.9-0.7,1.4-0.9c0.5-0.2,1.1-0.3,1.7-0.3c0.6,0,1.1,0.1,1.7,0.3c0.5,0.2,1,0.5,1.4,0.9
	s0.7,0.9,0.9,1.4C54.3,54.8,54.4,55.4,54.4,55.9z"/>
<path class="st2" d="M82.4,55.9c0,0.6-0.1,1.1-0.3,1.7c-0.2,0.5-0.5,1-0.9,1.4c-0.4,0.4-0.9,0.7-1.4,1c-0.5,0.2-1.1,0.3-1.7,0.3
	c-0.6,0-1.1-0.1-1.7-0.3c-0.5-0.2-1-0.5-1.4-1c-0.4-0.4-0.7-0.9-0.9-1.4c-0.2-0.5-0.3-1.1-0.3-1.7c0-0.6,0.1-1.1,0.3-1.7
	c0.2-0.5,0.5-1,0.9-1.4c0.4-0.4,0.9-0.7,1.4-0.9c0.5-0.2,1.1-0.3,1.7-0.3c0.6,0,1.1,0.1,1.7,0.3c0.5,0.2,1,0.5,1.4,0.9
	c0.4,0.4,0.7,0.9,0.9,1.4C82.3,54.8,82.4,55.4,82.4,55.9z"/>
<path class="st2" d="M44.7,60.4c-0.1-1.8-1.7-3.7-3.7-3.6c-4.6,0.3-12.1,3.9-10.2,9.8c1.1,3.3,4.7,4.4,7.6,2.7
	c2.1-1.3,4-3.3,5.2-5.6c0.3-0.5,0.4-1,0.5-1.5C44.5,61.8,44.7,61.2,44.7,60.4z"/>
<path class="st2" d="M59.8,79.5c4.5-0.2,9-0.5,13.4-0.7c4.5-0.2,4.6-7.3,0-7.1c-4.5,0.2-9,0.5-13.4,0.7
	C55.3,72.6,55.3,79.7,59.8,79.5z"/>
<path class="st2" d="M86.8,57.3c-1.9-0.1-3.6,1.8-3.6,3.6c0,0.7,0.2,1.3,0.5,1.8c0,0.5,0.2,1.1,0.5,1.7c1.2,2.1,3,4.3,5.2,5.6
	c2.8,1.7,6.6,0.6,7.6-2.7C98.7,61.3,91.2,57.7,86.8,57.3z"/>
</svg>
