<?xml version="1.0" encoding="utf-8"?>
<!-- Generator: Adobe Illustrator 26.4.1, SVG Export Plug-In . SVG Version: 6.00 Build 0)  -->
<svg version="1.1" id="图层_1" xmlns="http://www.w3.org/2000/svg" xmlns:xlink="http://www.w3.org/1999/xlink" x="0px" y="0px"
	 viewBox="0 0 127.6 127.6" style="enable-background:new 0 0 127.6 127.6;" xml:space="preserve">
<style type="text/css">
	.st0{clip-path:url(#SVGID_00000099639185122695183220000009726080566505607075_);}
	.st1{fill:#FFED88;}
	.st2{fill:#2E2E38;}
</style>
<g>
	<defs>
		<rect id="SVGID_1_" x="4.1" y="3.8" width="119.3" height="120"/>
	</defs>
	<clipPath id="SVGID_00000039094382137345031980000000142531381497388938_">
		<use xlink:href="#SVGID_1_"  style="overflow:visible;"/>
	</clipPath>
	<g style="clip-path:url(#SVGID_00000039094382137345031980000000142531381497388938_);">
		<path class="st1" d="M115.8,35.2c-0.5-0.9-0.9-1.7-1.5-2.5c-3-5.6-7.2-10-12.4-13.5c-4.2-3.9-7.6-7.3-12.9-9.6
			c-7.8-3.3-17.5-5.9-25.7-5c-4.5,0.5-10,0.8-14.4,1.9c-4.4,1-9,3.3-13,5.4c-5,2.4-9.5,5.9-13.4,9.8C14.7,29.4,8.4,39.7,6,50.4
			c-3.5,15.3-1.4,30.2,6.3,44c7.3,13.2,20.3,21.8,34.2,26.6c5.1,1.8,11.9,2.6,16.7,2.7c0.7,0,1.4,0.1,2.1,0
			c4.5-0.1,10.5-0.9,14.8-2.1c12.6-3.4,22.8-10.9,30.6-21.1c8.1-10.5,12.5-22.6,12.7-35.9c0.1-5.4-0.7-11.4-2.1-16.5
			C120.1,44,117.9,39.1,115.8,35.2z"/>
	</g>
</g>
<path class="st2" d="M54.5,51.9c0,0.6-0.1,1.1-0.3,1.6c-0.2,0.5-0.5,1-0.9,1.4c-0.4,0.4-0.9,0.7-1.4,0.9c-0.5,0.2-1.1,0.3-1.6,0.3
	s-1.1-0.1-1.6-0.3c-0.5-0.2-1-0.5-1.4-0.9c-0.4-0.4-0.7-0.9-0.9-1.4C46.1,53,46,52.4,46,51.9c0-0.6,0.1-1.1,0.3-1.6
	c0.2-0.5,0.5-1,0.9-1.4c0.4-0.4,0.9-0.7,1.4-0.9c0.5-0.2,1.1-0.3,1.6-0.3s1.1,0.1,1.6,0.3c0.5,0.2,1,0.5,1.4,0.9
	c0.4,0.4,0.7,0.9,0.9,1.4C54.4,50.8,54.5,51.3,54.5,51.9z"/>
<path class="st2" d="M81.5,51.9c0,0.6-0.1,1.1-0.3,1.6c-0.2,0.5-0.5,1-0.9,1.4c-0.4,0.4-0.9,0.7-1.4,0.9c-0.5,0.2-1.1,0.3-1.6,0.3
	c-0.6,0-1.1-0.1-1.6-0.3c-0.5-0.2-1-0.5-1.4-0.9c-0.4-0.4-0.7-0.9-0.9-1.4C73.1,53,73,52.4,73,51.9c0-0.6,0.1-1.1,0.3-1.6
	c0.2-0.5,0.5-1,0.9-1.4c0.4-0.4,0.9-0.7,1.4-0.9c0.5-0.2,1.1-0.3,1.6-0.3c0.6,0,1.1,0.1,1.6,0.3c0.5,0.2,1,0.5,1.4,0.9
	c0.4,0.4,0.7,0.9,0.9,1.4C81.4,50.8,81.5,51.3,81.5,51.9z"/>
<path class="st2" d="M37.6,72.6c18.1,8,38.1,8,56.2-0.1c4-1.8,0.6-7.6-3.4-5.9c-15.6,7-33.6,7-49.2,0.1C37,64.9,33.6,70.8,37.6,72.6
	z"/>
</svg>
