<?xml version="1.0" encoding="utf-8"?>
<!-- Generator: Adobe Illustrator 26.4.1, SVG Export Plug-In . SVG Version: 6.00 Build 0)  -->
<svg version="1.1" id="图层_1" xmlns="http://www.w3.org/2000/svg" xmlns:xlink="http://www.w3.org/1999/xlink" x="0px" y="0px"
	 viewBox="0 0 127.6 127.6" style="enable-background:new 0 0 127.6 127.6;" xml:space="preserve">
<style type="text/css">
	.st0{clip-path:url(#SVGID_00000120525053520004610610000009669643909143603127_);}
	.st1{fill:#6DA7CC;}
	.st2{fill:#1E1E54;}
</style>
<g>
	<defs>
		<rect id="SVGID_1_" x="3.1" y="6.6" width="121.3" height="114.4"/>
	</defs>
	<clipPath id="SVGID_00000183966250397341205380000013783139421131072403_">
		<use xlink:href="#SVGID_1_"  style="overflow:visible;"/>
	</clipPath>
	<g style="clip-path:url(#SVGID_00000183966250397341205380000013783139421131072403_);">
		<path class="st1" d="M61,7.2C43,7.6,27.7,12.9,13,33c-14.7,19.9-10.4,49.4,5.4,67.8C35.7,121,65.1,125.7,88,115.2
			c22-10,38.5-34.6,34.8-60C118,22.2,85.6,6.6,61,7.2z"/>
	</g>
</g>
<path class="st2" d="M49.6,59.1c-7.1,2-14.1,4.5-20.9,7.2c-1.2,0.5-2,1.6-1.6,2.9c0.3,1.1,1.7,2.1,2.9,1.6c1.8-0.7,3.5-1.4,5.3-2.1
	c0.1,5.1,0.3,10.2,0.4,15.2l0.2,8.9c0.1,2.8,0,5.7,0.4,8.5s1.1,7,4.7,7.2c3.1,0.2,4.9-2.8,5.3-5.4c0.4-2.9,0.1-5.9,0-8.7
	c-0.1-3-0.2-6-0.3-8.9c-0.2-6.7-0.5-13.4-0.7-20.2c1.9-0.6,3.8-1.2,5.7-1.7C53.8,62.8,52.6,58.2,49.6,59.1z"/>
<path class="st2" d="M100.6,67.3c-5.6-3.5-11.7-6.1-18-8c-0.3-0.1-0.6-0.1-0.9-0.1c-0.3,0-0.6,0.1-0.9,0.3c-0.3,0.2-0.5,0.4-0.7,0.6
	c-0.2,0.2-0.3,0.5-0.4,0.8c-0.1,0.3-0.1,0.6-0.1,0.9c0,0.3,0.1,0.6,0.3,0.9c0.2,0.3,0.4,0.5,0.6,0.7c0.2,0.2,0.5,0.3,0.8,0.4
	c1.5,0.4,2.9,0.9,4.4,1.4c0.7,11.5-1.7,23.1,0.2,34.5c0.4,2.4,0.8,5.8,3.2,7c0.7,0.3,1.5,0.4,2.2,0.3c0.8-0.1,1.4-0.5,2-1.1
	c1-1.1,1.6-2.4,1.6-4c0.2-2.7-0.2-5.5-0.5-8.2c-0.1-0.5-0.1-1-0.2-1.5c0.1-4.5,0.1-9-0.2-13.5c-0.1-2.1-0.3-4.2-0.5-6.3
	c-0.1-1.3-0.3-2.7-0.4-4.1c1.7,0.9,3.4,1.8,5,2.8c0.3,0.2,0.6,0.3,0.9,0.3c0.3,0.1,0.6,0,0.9,0c0.3-0.1,0.6-0.2,0.8-0.4
	c0.3-0.2,0.5-0.4,0.6-0.7c0.2-0.3,0.3-0.6,0.3-0.9c0-0.3,0-0.6-0.1-0.9c-0.1-0.3-0.2-0.6-0.4-0.8C101.2,67.7,100.9,67.5,100.6,67.3
	L100.6,67.3z"/>
<path class="st2" d="M67.7,70.1c-0.1-0.1,0.1,0.1,0.2,0.2l0.2,0.2c0,0.1,0.2,0.2,0.2,0.2c0.1,0.1,0.2,0.3,0.2,0.4v0l0,0.2v0
	c-0.5,0-1,0.1-1.5,0.4c-0.4,0.3-0.7,0.7-0.9,1.3c-0.1,0.3-0.1,0.6,0,0.9c0,0.3,0.1,0.6,0.3,0.9c0.2,0.3,0.3,0.5,0.6,0.7
	c0.2,0.2,0.5,0.3,0.8,0.4c0.5,0.1,1,0.2,1.5,0.1c0.5,0,1-0.2,1.4-0.4c0.4-0.2,0.9-0.5,1.2-0.8c0.4-0.3,0.6-0.7,0.9-1.2
	c0.4-1,0.6-2,0.4-3.1c-0.1-1.1-0.5-2-1.2-2.8c-0.6-0.8-1.3-1.4-2.1-1.9l0-0.1c0-0.2,0-0.3,0-0.5c-0.2-1.7-0.1-3.4,0.2-5.1
	c0.2-1.2-0.3-2.6-1.6-2.9c-1.1-0.3-2.7,0.3-2.9,1.6c-0.3,1.6-0.4,3.2-0.4,4.9c0,1.5,0,3.4,0.9,4.7C66.4,69.1,67,69.7,67.7,70.1z
	 M68.6,71.6L68.6,71.6C68.6,71.7,68.5,71.7,68.6,71.6L68.6,71.6z"/>
<path class="st2" d="M74.2,79.1c-4-1.7-8.6-1.4-12.7-0.1c-4.3,1.4-8.3,4.6-8.4,9.4C53,88.5,53,88.7,53,89c0,1.2,1.1,2.5,2.3,2.4
	c4.5-0.5,9.1-0.4,13.6-0.2c2.2,0.1,4.5,0.2,6.7,0.2c1.1,0,2.3,0.2,3.3-0.3c1.2-0.6,1.7-1.8,1.6-3.2C80.3,84,77.7,80.6,74.2,79.1z
	 M72.2,86.5c-1.9-0.1-3.7-0.1-5.6-0.2c-2.7-0.1-5.4-0.1-8.1,0.1c1.7-2.6,6-3.6,8.9-3.8c2.2-0.1,4.4,0.2,6.2,1.5
	c0.7,0.5,1.3,1.2,1.7,2c0.1,0.2,0.2,0.3,0.3,0.5h-0.7C74,86.6,73.1,86.5,72.2,86.5z"/>
</svg>
