<?xml version="1.0" encoding="utf-8"?>
<!-- Generator: Adobe Illustrator 26.4.1, SVG Export Plug-In . SVG Version: 6.00 Build 0)  -->
<svg version="1.1" id="图层_1" xmlns="http://www.w3.org/2000/svg" xmlns:xlink="http://www.w3.org/1999/xlink" x="0px" y="0px"
	 viewBox="0 0 127.6 127.6" style="enable-background:new 0 0 127.6 127.6;" xml:space="preserve">
<style type="text/css">
	.st0{clip-path:url(#SVGID_00000057118194701980230430000015775222732164431018_);}
	.st1{fill:#B9DCB3;}
	.st2{fill:#2E2E38;}
</style>
<g>
	<defs>
		<rect id="SVGID_1_" x="3.1" y="1.9" width="122.5" height="123.7"/>
	</defs>
	<clipPath id="SVGID_00000019636249669667152090000008179819064093081259_">
		<use xlink:href="#SVGID_1_"  style="overflow:visible;"/>
	</clipPath>
	<g style="clip-path:url(#SVGID_00000019636249669667152090000008179819064093081259_);">
		<path class="st1" d="M117.8,34.1c-0.5-0.9-0.9-1.8-1.5-2.6c-3-5.8-7.4-10.4-12.7-13.9c-4.3-4-9.4-6.8-15.1-8.4
			C81.1,4.7,72.4,1.6,64,2.6c-4.6,0.5-10.2,0.8-14.8,2C44.8,5.6,40,8,35.9,10.1c-5.2,2.5-9.7,6.1-13.7,10.1
			c-8,7.9-14.4,18.5-16.9,29.6C1.6,65.6,3.8,81,11.7,95.3c7.5,13.7,20.8,22.5,35.1,27.4c5.3,1.9,12.2,2.7,17.1,2.8
			c0.7,0,1.4,0.1,2.1,0c4.6-0.1,10.8-0.9,15.1-2.1c12.9-3.5,23.3-11.3,31.3-21.8c8.3-10.8,12.8-23.3,13-37.1
			c0.1-5.5-0.7-11.8-2.1-17.1C122.2,43.2,119.9,38.1,117.8,34.1z"/>
	</g>
</g>
<path class="st2" d="M60.1,78.3c4.5-0.2,8.9-0.5,13.3-0.7c4.5-0.2,4.6-7.3,0-7.1c-4.5,0.2-8.9,0.5-13.3,0.7
	C55.7,71.5,55.6,78.5,60.1,78.3z"/>
<path class="st2" d="M55,51.5c0,0.6-0.1,1.1-0.3,1.7c-0.2,0.5-0.5,1-0.9,1.4c-0.4,0.4-0.9,0.7-1.4,0.9s-1.1,0.3-1.7,0.3
	c-0.6,0-1.1-0.1-1.7-0.3s-1-0.5-1.4-0.9c-0.4-0.4-0.7-0.9-0.9-1.4c-0.2-0.5-0.3-1.1-0.3-1.7c0-0.6,0.1-1.1,0.3-1.7
	c0.2-0.5,0.5-1,0.9-1.4c0.4-0.4,0.9-0.7,1.4-0.9s1.1-0.3,1.7-0.3c0.6,0,1.1,0.1,1.7,0.3s1,0.5,1.4,0.9c0.4,0.4,0.7,0.9,0.9,1.4
	C54.8,50.3,55,50.9,55,51.5z"/>
<path class="st2" d="M82.6,51.5c0,0.6-0.1,1.1-0.3,1.7c-0.2,0.5-0.5,1-0.9,1.4c-0.4,0.4-0.9,0.7-1.4,0.9s-1.1,0.3-1.7,0.3
	c-0.6,0-1.1-0.1-1.7-0.3s-1-0.5-1.4-0.9c-0.4-0.4-0.7-0.9-0.9-1.4C74.1,52.6,74,52,74,51.5c0-0.6,0.1-1.1,0.3-1.7
	c0.2-0.5,0.5-1,0.9-1.4c0.4-0.4,0.9-0.7,1.4-0.9s1.1-0.3,1.7-0.3c0.6,0,1.1,0.1,1.7,0.3s1,0.5,1.4,0.9c0.4,0.4,0.7,0.9,0.9,1.4
	C82.5,50.3,82.6,50.9,82.6,51.5z"/>
</svg>
